<?xml version="1.0" encoding="utf-8"?>
<svg version="1.1" id="Layer_1" xmlns="http://www.w3.org/2000/svg" x="0px"
     y="0px" viewBox="0 0 180.8 195" style="enable-background:new 0 0 180.8 195;" xml:space="preserve">
    <g transform="translate(0.000000,214.000000) scale(0.100000,-0.100000)">
	<path d="M773,2120c-38-23-53-48-53-89c0-19-9-39-25-55c-15-15-25-36-25-54c0-31,33-82,54-82c6,0,17-13,23-29c15-41,56-64,116-67
		c29-1,73-8,99-15c41-10,53-10,92,5c178,68,128,326-63,326c-30,0-43,5-51,21c-16,28-69,59-105,59C819,2140,791,2131,773,2120z
		 M898,2074c12-14,22-34,22-46c0-14,5-18,16-14c65,25,118,12,164-40c49-57,38-143-26-193c-35-27-107-28-150-2c-20,12-36,16-45,10
		c-8-5-26-9-41-9c-29,0-68,40-68,71c0,12-7,19-18,19s-27,9-37,20c-15,16-16,25-7,44c6,13,20,27,31,31c16,5,19,12,14,40
		C739,2092,839,2140,898,2074z"/>
        <path d="M473,1910c-30-13-48-30-60-54c-9-20-23-36-30-36c-28,0-63-48-63-85c0-67,71-106,133-73c12,6,46,12,75,12c49,1,57,4,88,38
		c28,31,34,46,34,80C650,1894,563,1952,473,1910z M591,1861c37-37,38-79,4-119c-29-35-63-46-100-32c-21,8-31,6-54-11
		c-33-24-65-19-82,13c-16,30,4,67,40,74c20,4,31,14,36,31C453,1890,538,1914,591,1861z"/>
        <path d="M245,1578c-3-13-16-115-30-228s-27-220-30-237l-6-33H90H0V635V190h900h900l1,398c1,218,3,531,5,695c2,163,2,297,0,297
		s-115-62-252-138l-249-138l-3,138c-1,76-4,138-7,138c-2,0-30-15-62-34c-32-18-163-90-290-161l-233-127v-89v-89h-50
		c-32,0-52,5-55,13c-5,13-65,472-65,494c0,10-34,13-145,13C253,1600,250,1600,245,1578z M499,1338c13-106,26-208,28-225l6-33H398
		c-74,0-137,2-140,5c-2,3,8,101,23,218c16,116,28,215,29,220c0,4,37,7,83,7h83L499,1338z M1220,860V260h-215H790v479v479l213,120
		c116,66,213,121,215,121C1219,1460,1220,1190,1220,860z M1735,863c-1-324-3-591-4-595c0-5-98-8-216-8h-215v479v480l208,115
		c114,63,212,115,218,116C1735,1450,1737,1298,1735,863z M710,635V260h-55h-55v128c0,70-5,143-10,163c-16,56-51,102-100,129
		c-98,54-220,20-277-77c-25-44-27-55-31-195l-4-148h-54H70v375v375h320h320V635z M370,465V259l-72,3l-73,3v146c0,141,1,147,26,186
		c25,36,77,72,107,73C367,670,370,622,370,465z M496,635c55-42,64-76,64-234V260h-75h-75v206v206l28-7C453,662,479,648,496,635z"/>
        <path d="M857,1064c-4-4-7-38-7-76v-68h155h156l-3,73l-3,72l-146,3C929,1069,861,1067,857,1064z M1120,990v-40h-115H890v40v40h115
		h115V990z"/>
        <path d="M850,765v-75h155h155v75v75h-155H850V765z M1120,765v-45h-115H890v45v45h115h115V765z"/>
        <path d="M1360,765v-75h149h149l4,65c1,36,2,70,0,75c-2,6-64,10-153,10h-149V765z M1630,765v-45h-115h-115v45v45h115h115V765z"/>
        <path d="M1362,538l3-73l148-3l147-3v76v75h-150h-151L1362,538z M1630,540v-40h-115h-115v40v40h115h115V540z"/>
</g>
</svg>
