<?xml version="1.0" encoding="utf-8"?>
<svg version="1.1" id="Layer_1" xmlns="http://www.w3.org/2000/svg" x="0px" y="0px"
     viewBox="0 0 176.5 143" style="enable-background:new 0 0 176.5 143;" xml:space="preserve">
<g transform="translate(0.000000,183.000000) scale(0.100000,-0.100000)">
	<path d="M156,1636c-50-106-91-196-91-200c0-3,38-6,85-6h85l-2-397l-3-397h-59l-58-1l-2-80l-1-80l-54-5c-53-5-54-6-55-38l-1-32h883
		h882v35v35h-55h-55v84v83h-27c-16,0-43,1-60,1l-33,2v395v395h80c58,0,80,3,79,13c0,6-40,95-88,197l-87,185l-636,3l-635,2L156,1636z
		 M1530,1634c30-65,55-121,55-125c0-5-315-9-700-9c-547,0-700,3-700,12c0,7,24,63,53,125l52,112l593,1h592L1530,1634z M1465,1035
		c0-217-3-395-7-395c-5,0-69-2-143-3l-135-2l-3-82l-3-83h-53h-54l-4,188c-3,185-3,189-30,229c-77,117-252,105-309-21
		c-16-35-19-67-19-218V470h-60h-60v85v84l-137-1H310l-3,396l-2,396h580h580V1035z M865,700V469l-62,3l-63,3l-3,158
		c-1,88,2,175,8,197c11,43,69,100,100,100C864,930,865,922,865,700z M956,915c62-32,69-60,69-263V469l-62,3l-63,3l-3,228
		C894,953,893,947,956,915z M515,520v-50H350H185v50v50h165h165V520z M1583,518l3-48h-170h-171v43c0,24,3,47,7,51c4,3,79,5,167,4
		l161-3L1583,518z"/>
    <path d="M439,1296c-33-33-34-36-34-115v-81h115h115v70c0,82-17,123-60,145C525,1341,478,1335,439,1296z M593,1249c7-13,11-44,10-69
		c-3-43-5-45-35-48l-33-3v87v86l23-14C570,1280,586,1262,593,1249z M503,1213l-3-78l-32-3l-33-3v54c0,57,26,107,56,107
		C503,1290,505,1275,503,1213z"/>
    <path d="M823,1314c-42-22-58-63-58-144v-70h115h115v81c0,79-1,82-34,115c-27,27-42,34-72,34C867,1329,838,1323,823,1314z M865,1214
		v-85l-32,3c-37,3-45,24-33,85c5,31,43,83,60,83C863,1300,865,1261,865,1214z M944,1264c15-20,21-41,21-81v-54l-32,3l-33,3l-3,78
		C894,1299,906,1312,944,1264z"/>
    <path d="M1169,1296c-33-33-34-36-34-115v-81h115h115v65c0,113-40,165-126,165C1211,1330,1195,1322,1169,1296z M1315,1260
		c6-11,12-44,13-72c2-53,2-53-30-56l-33-3v86c0,82,1,85,20,75C1296,1284,1309,1271,1315,1260z M1233,1213l-3-78l-32-3l-33-3v54
		c0,57,26,107,56,107C1233,1290,1235,1275,1233,1213z"/>
    <path d="M439,896c-33-33-34-36-34-115v-81h115h115v70c0,82-17,123-60,145C525,941,478,935,439,896z M505,810v-80h-35h-35v54
		c0,39,6,60,21,80C493,912,505,899,505,810z M580,870c12-14,20-41,23-80l4-60h-36h-36v80C535,896,545,909,580,870z"/>
    <path d="M1169,896c-33-33-34-36-34-115v-81h115h115v65c0,113-40,165-126,165C1211,930,1195,922,1169,896z M1233,813l-3-78l-32-3
		l-33-3v54c0,57,26,107,56,107C1233,890,1235,875,1233,813z M1310,866c8-12,16-47,18-77l2-54l-32-3l-33-3v80c0,65,3,81,15,81
		C1288,890,1301,879,1310,866z"/>
</g>
</svg>
