<?xml version="1.0" encoding="utf-8"?>
<svg version="1.1" id="Layer_1" xmlns="http://www.w3.org/2000/svg" x="0px" y="0px"
     viewBox="0 0 176 155" style="enable-background:new 0 0 176 155;" xml:space="preserve">
<g transform="translate(0.000000,225.000000) scale(0.100000,-0.100000)">
	<path d="M290,2120v-130h50h50v-105v-104l-142-3l-143-3l-3-503l-2-502H50H0v-35v-35h880h880v35v35h-55h-55v505v505h-140h-140v105
		v105h45h45v130v130H875H290V2120z M1390,2120v-60H875H360v60v60h515h515V2120z M730,1986c0-2-31-35-70-72c-38-37-70-73-70-81
		c0-31,41-7,119,72l84,85h201h201l-105-105c-101-102-106-105-149-105h-44l68,71c51,53,65,73,56,82c-8,8-31-9-94-71l-82-82H652H460
		v105v105h135C669,1990,730,1988,730,1986z M1292,1885l3-105h-130h-130l105,105c70,70,112,105,127,105
		C1288,1990,1289,1986,1292,1885z M1580,1235V770h-275h-275v169c0,102-4,171-10,173c-5,2-73,2-150,0l-140-3V940V771l-275-3l-275-3
		v468v467h700h700V1235z M990,925V770H875H760v155v155h115h115V925z"/>
    <path d="M290,1535v-75h160h160v75v75H450H290V1535z M570,1530v-41l-122,3l-123,3l-3,38l-3,37h125h126V1530z"/>
    <path d="M720,1535v-75h160h160v75v75H880H720V1535z M1000,1530v-41l-122,3l-123,3l-3,38l-3,37h125h126V1530z"/>
    <path d="M1148,1535l-3-75h163h162v75v75h-159h-159L1148,1535z M1430,1530v-41l-122,3l-123,3l-3,38l-3,37h125h126V1530z"/>
    <path d="M290,1285v-75h160h160v75v75H450H290V1285z M570,1290v-40H445H320v33c0,19,3,37,7,40c3,4,60,7,125,7h118V1290z"/>
    <path d="M720,1285v-75h160h160v75v75H880H720V1285z M1000,1290v-40H875H750v40v40h125h125V1290z"/>
    <path d="M1148,1285l4-75h159h159v75v75h-162h-163L1148,1285z M1430,1290v-40h-125h-125v40v40h125h125V1290z"/>
    <path d="M290,1045v-75h160h160v75v75H450H290V1045z M570,1045v-45H445H320v38c0,21,3,42,7,45c3,4,60,7,125,7h118V1045z"/>
    <path d="M1149,1068c0-29-2-63-3-75l-3-23h164h163v75v75h-160h-160L1149,1068z M1430,1044v-44h-125h-125v38c0,21,3,42,7,46
		s60,6,125,5l118-1V1044z"/>
</g>
</svg>
