<?xml version="1.0" encoding="utf-8"?>
<svg version="1.1" id="Layer_1" xmlns="http://www.w3.org/2000/svg" x="0px" y="0px"
     viewBox="0 0 176.5 199" style="enable-background:new 0 0 176.5 199;" xml:space="preserve">
<g transform="translate(0.000000,183.000000) scale(0.100000,-0.100000)">
<path d="M734 1232 c-4 -14 -23 -29 -49 -41 -49 -22 -65 -45 -65 -95 0 -41 35
-87 80 -106 26 -11 30 -18 30 -49 0 -55 -14 -70 -35 -37 -12 18 -26 26 -46 26
-62 0 -39 -66 36 -105 21 -11 40 -26 43 -33 5 -16 29 -15 39 2 4 7 27 25 51
40 48 30 76 81 66 121 -7 29 -55 72 -90 81 -21 6 -24 12 -24 57 0 49 0 50 20
32 19 -17 65 -24 77 -11 11 11 -18 52 -50 71 -18 10 -42 30 -54 44 l-23 26 -6
-23z m-11 -154 l-10 -23 -12 23 c-9 17 -9 27 0 44 l12 23 10 -23 c7 -14 7 -30
0 -44z m87 -152 c0 -22 -17 -46 -32 -46 -10 0 -11 74 -1 83 11 11 33 -14 33
-37z"/>
<path d="M1273 1201 c-79 -15 -145 -30 -148 -32 -2 -3 16 -25 40 -49 25 -24
45 -49 45 -55 0 -5 -104 -112 -232 -237 l-233 -227 -153 152 -152 152 -215
-215 -215 -215 50 -50 50 -50 163 163 162 162 140 -141 c77 -77 148 -145 159
-151 16 -9 55 26 302 273 l284 284 53 -53 53 -52 28 167 c16 93 33 176 38 186
8 15 4 17 -34 16 -24 -1 -107 -13 -185 -28z"/>
<path d="M1197 722 l-108 -108 7 -307 7 -307 109 0 108 0 0 415 c0 228 -3 415
-8 415 -4 0 -56 -49 -115 -108z"/>
<path d="M297 442 l-127 -127 0 -158 0 -157 265 0 265 0 0 158 0 157 -128 128
c-70 70 -132 127 -137 127 -6 0 -68 -57 -138 -128z m123 -172 c0 -40 0 -40
-39 -40 -38 0 -39 1 -43 40 l-4 40 43 0 43 0 0 -40z m115 0 c0 -33 -2 -35 -37
-38 l-38 -3 0 41 0 41 38 -3 c35 -3 37 -5 37 -38z m-117 -117 c3 -32 2 -33
-37 -33 -40 0 -41 1 -41 36 0 35 1 35 38 32 34 -3 37 -6 40 -35z m120 0 c3
-32 2 -33 -37 -33 -40 0 -41 1 -41 36 0 35 1 35 38 32 34 -3 37 -6 40 -35z"/>
<path d="M898 423 l-108 -108 0 -158 0 -157 105 0 c76 0 107 4 110 13 3 7 4
126 3 265 l-3 252 -107 -107z"/>
</g>
</svg>
