<?xml version="1.0" encoding="utf-8"?>
<svg version="1.1" id="Layer_1" xmlns="http://www.w3.org/2000/svg" xmlns:xlink="http://www.w3.org/1999/xlink" x="0px"
     y="0px"
     viewBox="0 0 177 151" style="enable-background:new 0 0 177 151;" xml:space="preserve">
<g transform="translate(0.000000,202.000000) scale(0.100000,-0.100000)">
	<path d="M8.9,2018c0-2-1-69-2-151l-2-147h48c46,0,47-1,47-30s-2-30-45-30c-57,0-58-5-53-187c4-154,15-191,68-218l30-16l-2-327
		l-3-327l-42-3c-42-3-43-4-43-38v-34h880h880v35c0,35,0,35-45,35h-45v325v325l45,43l45,44v171v172h-45c-43,0-45,1-45,30s2,30,45,30
		h45v150v150h-880C405.9,2020,9.9,2019,8.9,2018z M1699.9,1870v-80h-809h-808l-7,71c-3,39-4,75-1,80c4,5,329,9,816,9h809V1870z
		 M1609.9,1690v-30h-720h-720v30v30h720h720V1690z M189.9,1468c0-99-3-125-17-140c-23-26-58-22-82,8c-18,23-21,41-21,134
		c0,59,3,110,7,113c3,4,30,7,60,7h53V1468z M379.9,1468c0-131-9-158-54-158c-52,1-66,36-66,163c0,57,3,107,7,110c3,4,30,7,60,7h53
		V1468z M569.9,1470c0-107-2-122-20-140c-24-24-49-25-76-6c-16,12-19,29-22,126c-2,61-1,117,2,125c4,11,22,15,61,15h55V1470z
		 M759.9,1470c0-107-2-122-20-140c-11-11-29-20-40-20s-29,9-40,20c-18,18-20,33-20,140v120h60h60V1470z M949.9,1470
		c0-107-2-122-20-140c-11-11-29-20-40-20s-29,9-40,20c-18,18-20,33-20,140v120h60h60V1470z M1137.9,1479c1-58-2-118-7-132
		c-13-34-53-45-86-23c-24,16-25,19-25,142v125l58-3l57-3L1137.9,1479z M1324.9,1462c0-111-2-125-19-138c-26-19-55-18-78,3
		c-16,14-18,33-18,140v124l58-3l57-3V1462z M1509.9,1468c0-99-3-125-17-140c-20-22-51-23-75-1c-16,14-18,33-18,140v123h55h55V1468z
		 M1699.9,1468c0-132-9-158-56-158c-45,0-60,38-63,154c-1,58,0,110,4,116c3,5,31,10,61,10h54V1468z M335.9,1243c26,2,53,12,61,20
		c14,13,19,13,50-5c39-24,114-21,140,5c14,14,19,13,47-4c39-24,92-24,131-1c29,18,31,18,60,0c38-23,92-23,130,0c29,18,31,18,60,0
		c39-23,92-23,131,1c28,17,33,17,46,4c25-24,93-28,138-8c35,16,40,16,61,1c30-21,93-21,128,0c25,15,30,15,59,0l32-17V910V580l-322,2
		l-323,3l-3,248l-2,247h-330h-330V830V579l-62,3l-63,3l-3,325l-2,324l27,22l27,21l33-20C282.9,1242,301.9,1239,335.9,1243z
		 M617.9,818l-3-233l-137-3l-138-3v236v235h140h140L617.9,818z M929.9,815V580h-140h-140v235v235h140h140V815z"/>
    <path d="M1039.9,920V750h245h245v170v170h-245h-245V920z M1499.9,915V780h-210h-210v135v135h210h210V915z"/>
</g>
</svg>
