<?xml version="1.0" encoding="utf-8"?>
<svg version="1.1" id="Layer_1" xmlns="http://www.w3.org/2000/svg" x="0px" y="0px"
     viewBox="0 0 180 199" style="enable-background:new 0 0 180 199;" xml:space="preserve">
<g transform="translate(0.000000,183.000000) scale(0.100000,-0.100000)">
fill="#000000" stroke="none">
<path d="M221 1399 l-51 -41 0 -84 0 -84 -60 0 -61 0 3 -97 3 -98 57 -3 58 -3
2 -467 3 -467 98 -3 97 -3 0 471 0 470 121 0 121 0 -4 -60 c-2 -33 -7 -63 -11
-66 -4 -4 -29 -9 -57 -12 l-50 -5 0 -298 0 -299 395 0 395 0 0 300 0 300 -29
0 c-16 0 -43 3 -60 6 -31 6 -31 7 -31 70 l0 64 99 0 99 0 46 54 c25 30 43 56
39 58 -5 1 -23 21 -42 43 l-35 40 -495 5 -496 5 -5 86 c-5 81 -7 88 -35 110
-66 53 -58 53 -114 8z m869 -474 l0 -65 -205 0 -205 0 0 34 c0 18 -3 48 -6 65
l-6 31 211 0 211 0 0 -65z m115 -375 l0 -235 -322 -3 -323 -2 0 233 c0 129 3
237 7 240 4 4 149 6 322 5 l316 -3 0 -235z"/>
<path d="M680 655 c0 -58 3 -75 14 -75 9 0 16 12 18 28 2 21 9 28 31 30 32 4
31 25 -1 30 -30 5 -28 28 3 36 41 10 29 26 -20 26 l-45 0 0 -75z"/>
<path d="M826 717 c-9 -7 -20 -31 -23 -54 -4 -33 -1 -45 16 -62 46 -46 121
-13 121 54 0 62 -66 97 -114 62z m76 -42 c9 -19 8 -29 -6 -50 -9 -14 -21 -25
-26 -25 -5 0 -17 11 -26 25 -21 32 -6 75 26 75 12 0 25 -10 32 -25z"/>
<path d="M970 655 c0 -58 3 -75 14 -75 8 0 16 11 18 25 4 35 20 36 36 3 7 -16
20 -28 28 -28 17 0 18 9 4 44 -7 18 -6 34 2 52 11 22 10 28 -7 40 -10 8 -36
14 -57 14 l-38 0 0 -75z m66 17 c-19 -19 -42 -3 -32 23 5 13 10 14 27 4 20
-10 20 -12 5 -27z"/>
<path d="M656 504 c-24 -24 -20 -39 22 -73 31 -25 34 -31 17 -32 -44 -3 -48
-4 -52 -15 -7 -20 27 -24 63 -9 43 18 45 46 4 75 -36 25 -38 37 -8 42 12 2 23
9 26 16 6 18 -53 15 -72 -4z"/>
<path d="M781 452 c-12 -38 -21 -72 -21 -76 0 -14 26 -5 38 14 7 11 19 20 27
20 8 0 19 -9 25 -20 12 -22 40 -27 39 -7 0 6 -10 39 -22 72 -17 46 -27 61 -44
63 -19 3 -24 -5 -42 -66z m58 -14 c1 -5 -6 -8 -14 -8 -15 0 -21 31 -8 44 7 6
20 -17 22 -36z"/>
<path d="M913 484 c4 -22 7 -56 7 -76 l0 -38 45 0 c51 0 60 14 16 23 -29 6
-30 9 -33 64 -2 47 -6 58 -22 61 -17 4 -18 0 -13 -34z"/>
<path d="M1030 446 l0 -76 50 0 c28 0 50 5 50 10 0 6 -13 10 -30 10 -40 0 -44
37 -5 42 14 2 26 8 26 13 0 6 -12 11 -26 13 -14 2 -25 9 -25 17 0 8 11 15 25
17 44 5 32 23 -17 26 l-48 3 0 -75z"/>
</g>
</svg>
